<?xml version="1.0" encoding="UTF-8"?>
<svg id="Layer_2" xmlns="http://www.w3.org/2000/svg" viewBox="0 0 1245.2 1080">
  <defs>
    <style>
      .cls-1 {
        fill: #00fd77;
      }

      .cls-2 {
        fill: #3333d1;
      }
    </style>
  </defs>
  <g id="Layer_2-2" data-name="Layer_2">
    <g>
      <g>
        <path class="cls-2" d="M883.51,1024.46s195.4-57.18,250.76-360.72l-481.18-284.9-3-6.14L1238.53,92.08l6.67-36.54H497.29S470.75,0,470.75,0h-82.32s495.09,1024.46,495.09,1024.46Z"/>
        <polygon class="cls-1" points="1160.54 519.67 912.32 375.71 1213.23 228.47 1160.54 519.67"/>
      </g>
      <g>
        <path class="cls-1" d="M361.69,55.54s-195.4,57.18-250.76,360.72l481.18,284.9,3,6.14L6.67,987.92l-6.67,36.54h747.92s26.54,55.54,26.54,55.54h82.32S361.69,55.54,361.69,55.54Z"/>
        <polygon class="cls-2" points="84.66 560.33 332.88 704.29 31.98 851.53 84.66 560.33"/>
      </g>
    </g>
  </g>
</svg>